HIERARCHY
ROOT hip
{
	OFFSET	0.00  0.00  0.00 
	CHANNELS 6 Xposition Yposition Zposition Yrotation Xrotation Zrotation
	JOINT abdomen
	{
		OFFSET	0.000000 -1.897267 9.045972
		CHANNELS 3 Xrotation Yrotation Zrotation
		JOINT chest
		{
			OFFSET	-0.143999 1.566932 8.722247
			CHANNELS 3 Xrotation Yrotation Zrotation
			JOINT lShldr
			{
				OFFSET	5.471978 -4.103984 12.500172
				CHANNELS 3 Xrotation Zrotation Yrotation
				JOINT lUpArm
				{
					OFFSET	-0.575998 -6.839972 -2.159991
					CHANNELS 3 Xrotation Zrotation Yrotation
					JOINT lForeArm
					{
						OFFSET	-0.405474 -10.705134 0.369070
						CHANNELS 3 Xrotation Zrotation Yrotation
						JOINT lWrist
						{
							OFFSET	-0.003125 -8.984124 -0.070488
							CHANNELS 3 Xrotation Zrotation Yrotation
							JOINT lHand
							{
								OFFSET	0.090432 -3.183755 -0.383686
								CHANNELS 3 Zrotation Xrotation Yrotation
								End Site
								{
									OFFSET 0.000000 -3.778113 0.000000
								}
							}
						}
					}
				}
			}
			JOINT rShldr
			{
				OFFSET	-5.183979 -4.103984 12.500172
				CHANNELS 3 Xrotation Zrotation Yrotation
				JOINT rUpArm
				{
					OFFSET	0.575998 -6.839972 -2.159991
					CHANNELS 3 Xrotation Zrotation Yrotation
					JOINT rForeArm
					{
						OFFSET	0.405474 -10.705134 0.369070
						CHANNELS 3 Xrotation Zrotation Yrotation
						JOINT rWrist
						{
							OFFSET	0.003125 -8.984124 -0.070488
							CHANNELS 3 Xrotation Zrotation Yrotation
							JOINT rHand
							{
								OFFSET	-0.090432 -3.183755 -0.383686
								CHANNELS 3 Zrotation Xrotation Yrotation
								End Site
								{
									OFFSET 0.000000 -3.778113 0.000000
								}
							}
						}
					}
				}
			}
			JOINT lowNeck
			{
				OFFSET	-1.188233 1.182450 11.422696
				CHANNELS 3 Xrotation Yrotation Zrotation
				JOINT upNeck
				{
					OFFSET	1.332232 6.233519 9.213443
					CHANNELS 3 Xrotation Yrotation Zrotation
					JOINT head
					{
						OFFSET	0.215999 0.791995 8.639966
						CHANNELS 3 Xrotation Yrotation Zrotation
					}
				}
			}
		}
	}
	JOINT lThigh
	{
		OFFSET	5.399978 0.677661 -2.275478
		CHANNELS 3 Xrotation Zrotation Yrotation
		JOINT lLeg
		{
			OFFSET	-0.575998 -10.079961 2.807989
			CHANNELS 3 Xrotation Zrotation Yrotation
			JOINT lShin
			{
				OFFSET	0.507043 -10.594181 -2.650814
				CHANNELS 3 Xrotation Zrotation Yrotation
				JOINT lAnkle
				{
					OFFSET	0.302780 -11.869347 -0.666717
					CHANNELS 3 Xrotation Zrotation Yrotation
					JOINT lFoot
					{
						OFFSET	0.026453 -3.325112 0.152280
						CHANNELS 3 Zrotation Xrotation Yrotation
						End Site
						{
							OFFSET 0.000000 -3.371530 0.000000
						}
					}
				}
			}
		}
	}
	JOINT rThigh
	{
		OFFSET	-5.399978 0.677661 -2.275478
		CHANNELS 3 Xrotation Zrotation Yrotation
		JOINT rLeg
		{
			OFFSET	0.575998 -10.079961 2.807989
			CHANNELS 3 Xrotation Zrotation Yrotation
			JOINT rShin
			{
				OFFSET	-0.507043 -10.594181 -2.650814
				CHANNELS 3 Xrotation Zrotation Yrotation
				JOINT rAnkle
				{
					OFFSET	-0.302780 -11.869347 -0.666717
					CHANNELS 3 Xrotation Zrotation Yrotation
					JOINT rFoot
					{
						OFFSET	-0.026453 -3.325112 0.152280
						CHANNELS 3 Zrotation Xrotation Yrotation
						End Site
						{
							OFFSET 0.000000 -3.371530 0.000000
						}
					}
				}
			}
		}
	}
	JOINT tail1
	{
		OFFSET	0.000000 6.568459 -8.597196
		CHANNELS 3 Xrotation Yrotation Zrotation
		JOINT tail2
		{
			OFFSET	0.000000 -0.181797 -6.295656
			CHANNELS 3 Xrotation Yrotation Zrotation
			JOINT tail3
			{
				OFFSET	0.000000 0.076174 -6.802675
				CHANNELS 3 Xrotation Yrotation Zrotation
				JOINT tail4
				{
					OFFSET	0.000000 -0.058536 -9.317845
					CHANNELS 3 Xrotation Yrotation Zrotation
					End Site
					{
						OFFSET 0.000000 0.000000 -9.647674
					}
				}
			}
		}
	}
}
MOTION
Frames:     5
Frame Time: 0.033333
0.000000 34.763321 -18.892437 0.000000 2.000000 0.000000 -8.913760 0.000000 0.000000 8.316370 0.000000 0.000000 -43.004135 6.343964 7.423676 -1.220511 -4.366694 -0.751484 -0.158067 -2.809508 -0.169429 -3.324695 -1.081568 0.057570 -1.825593 19.939522 -1.635292 22.485720 -7.136641 -7.406388 -3.913137 6.419896 1.424119 -6.139845 3.055380 -0.179952 -12.654396 1.106477 -2.746845 3.825398 -27.707157 9.899949 -56.689636 -0.065331 -0.325540 17.351000 -0.000003 -0.010395 8.505127 -0.576556 0.470338 5.371953 1.853186 1.958253 24.086735 -3.345437 1.909141 -19.772120 -3.222100 0.591365 10.575008 1.638620 9.155901 -11.379415 -45.992100 -20.133528 23.663950 0.819646 -1.600754 25.563604 0.615192 -2.383193 -23.917063 -0.800689 -1.116743 40.131908 -0.284684 -8.856104 -4.815761 50.104599 -6.576831 30.676701 -5.738490 -1.392760 -20.828100 -1.296260 0.000000 -2.287410 12.943100 0.271828 -0.180751 5.273370 -1.406260 
0.000000 34.843369 -18.892437 0.000000 -2.855710 0.000000 3.603100 0.000000 -0.102060 1.658590 0.000000 0.012560 -15.301538 5.378914 7.125247 -5.160124 -3.958311 -0.455731 -4.469998 -3.121193 -0.038056 -37.003094 -2.929552 0.244629 3.276578 24.058664 -6.344723 12.730148 -6.921937 -7.662604 10.480677 4.516795 0.970560 6.500707 0.203541 0.353886 11.227429 -2.933195 0.447965 3.137208 9.139196 10.099478 -59.375183 -0.065331 -0.325540 17.351000 -0.000003 -0.010395 10.505960 -0.613201 0.550853 16.469568 1.583200 1.976738 28.680149 -1.733233 5.562315 -22.343401 -4.813865 0.651658 23.594439 -2.233988 2.983574 0.401320 8.780225 -19.192204 11.843730 0.810044 -1.229133 37.700413 0.506355 -2.675896 -48.379253 -0.791261 -1.484903 68.427116 -1.323064 -10.120044 -1.242121 37.971294 -23.831190 44.847698 -1.757820 -0.521949 -22.497700 -3.658390 -0.401775 -28.393900 2.998240 2.682430 27.274300 5.896920 1.104100 
0.000000 36.117844 -18.892437 0.000000 -11.787800 0.000000 16.600300 0.000000 -0.269763 0.844210 -0.000000 -0.002552 16.211239 9.994745 5.384940 14.006118 -5.068407 -5.549208 -0.655249 -3.983826 -0.482921 12.076873 -9.131750 -0.061963 -12.551440 43.511635 93.166985 -15.856476 -7.467381 -7.759286 -0.029276 5.274862 -0.522706 58.276115 -3.363436 3.246538 47.106720 -8.303545 -0.323680 3.833879 18.247843 1.296799 -64.687683 -0.065331 -0.325540 18.351000 -0.000003 -0.010395 13.502448 -0.662768 0.673702 6.982584 0.546794 -0.031523 43.292885 -1.913409 5.849241 -32.829155 -1.114544 -0.309186 69.182838 -1.099980 5.081921 -0.529738 23.598228 44.552898 -23.945507 1.208880 -3.811041 61.034748 -0.785966 -5.556392 -65.868744 1.592021 -0.121724 64.048218 -2.282470 -6.127127 0.000000 29.004225 17.717270 57.188202 -0.757810 -0.527007 -24.152599 4.854240 0.000000 -69.088203 -15.285200 0.230622 40.561100 5.000000 0.000000 
0.000000 36.491314 -18.892437 0.000000 -14.000000 0.000000 15.692500 0.000000 -0.176483 2.668200 0.000000 0.008968 10.787879 7.069056 6.971847 14.187275 -4.327552 -10.738536 14.308675 -3.683507 -0.438663 -8.723426 -0.979778 0.629415 -1.516632 27.373381 -4.055754 -21.828896 -7.643017 -7.342465 -19.801392 6.864041 -1.695385 81.528084 -3.132741 4.010031 20.619503 -5.987804 0.772839 2.626905 20.582809 -16.628962 -61.689640 -0.065331 -0.325540 17.351000 -0.000003 -0.010395 15.503429 -0.692262 0.757106 -7.444684 -1.327471 -0.398279 58.001419 -2.462765 2.783400 -53.936016 2.191956 -1.535994 59.281876 0.211680 10.416858 -3.572627 29.167103 -32.657532 -43.027580 -0.419074 -5.252983 67.672684 -1.238154 -7.148679 -58.080261 3.651965 -0.812399 38.788715 1.783596 -0.300487 -4.335634 26.568571 9.017709 63.533199 -0.729300 -0.525651 -19.828100 6.703740 0.000000 -60.070900 -5.000000 0.000000 -56.217899 2.000000 0.000000 
0.000000 36.535519 -18.892437 0.000000 -14.985100 0.000000 18.149900 0.000000 -0.373374 -0.442900 0.000000 0.001619 4.054971 6.027977 7.165114 7.276896 -4.089480 -9.121639 36.696522 -4.117804 -1.343786 -5.273050 -1.276557 1.300192 0.000000 50.967525 26.189337 -29.438894 -8.142249 -7.557443 -15.976021 6.982275 -1.338310 85.748665 -3.973536 3.918249 33.929993 -6.449990 0.094339 4.730705 14.347637 89.001923 -58.681831 -0.065331 -0.325540 16.351000 -0.000003 -0.010395 14.498054 -0.677807 0.715071 -14.818827 -1.962782 0.187362 59.282742 -1.759539 2.550525 -66.219795 2.513029 -2.919823 77.020523 -0.960404 10.509212 -3.852929 32.701195 -36.516880 -44.272793 0.166350 -5.526755 53.931034 -1.787574 -8.495565 -45.380936 3.853336 -1.162706 36.878376 1.105175 -0.051703 -5.015811 14.662224 10.438962 63.188702 0.253050 -0.513890 -21.290899 8.394000 0.000000 -43.694401 -5.500000 0.000000 -72.535896 -3.000000 0.000000 
